<svg width="297" height="45" viewBox="0 0 297 45" fill="none" xmlns="http://www.w3.org/2000/svg">
<path d="M0 16.4238C0.0621182 18.1877 0.216498 19.9468 0.462529 21.6938C0.846904 24.472 1.0554 26.4307 1.30297 27.9897L5.35015 23.7335C7.60954 21.3574 8.73923 20.1693 8.37854 19.0248C8.01784 17.8804 6.42237 17.5905 3.23142 17.0109L0 16.4238Z" fill="#011323"/>
<path d="M26.1702 1.83353C25.5187 1.66697 24.8672 1.5004 24.2157 1.34717L23.0756 1.07401C8.39766 -1.9707 0.423465 1.18727 0 14.039L7.08686 15.2784C9.73609 15.7417 11.0607 15.9734 12.2853 15.5651C13.5098 15.1568 14.4464 14.1712 16.3194 12.2L26.1702 1.83353Z" fill="#011323"/>
<path d="M22.0909 14.6626C20.0451 14.3218 19.0222 14.1514 18.0863 14.4848C17.1505 14.8181 16.4523 15.6014 15.0561 17.1681L2.22852 31.5615C3.14965 33.9465 4.52875 36.1186 6.28439 37.9494C8.04002 39.7803 10.1366 41.2329 12.4503 42.2213L26.2552 21.0851C27.775 18.7582 28.535 17.5947 28.1096 16.5944C27.6842 15.5942 26.3338 15.3692 23.633 14.9194L22.0909 14.6626Z" fill="#011323"/>
<path d="M27.5882 13.4662C29.1899 13.7248 29.9907 13.8541 30.6895 13.5408C31.3884 13.2276 31.8381 12.5377 32.7376 11.158L36.0976 6.00377C33.6783 4.36035 31.0073 3.14211 28.1951 2.39941L22.7555 8.50389C21.3202 10.1146 20.6026 10.9199 20.8603 11.6707C21.118 12.4214 22.1704 12.5914 24.2752 12.9312L27.5882 13.4662Z" fill="#011323"/>
<path d="M16.6328 43.3734C18.0465 43.6266 19.799 43.8531 22.1443 44.1662C27.5452 44.8791 30.2488 45.2322 32.3531 44.8325C38.0341 43.7931 42.7052 39.6158 43.3892 33.7529C43.5357 32.4499 43.6184 31.1402 43.6368 29.8288L31.9881 27.544C29.4077 27.0379 28.1175 26.7849 26.998 27.2931C25.8785 27.8014 25.1967 28.9497 23.8331 31.2464L16.6328 43.3734Z" fill="#011323"/>
<path d="M37.9359 7.57617L30.2183 20.5427C29.3241 22.045 28.877 22.7961 29.1574 23.4355C29.4377 24.0749 30.2836 24.2332 31.9752 24.5498L43.5582 26.7172C43.2406 22.5408 42.5869 18.3984 41.6038 14.3318C41.0485 11.7635 39.774 9.41608 37.9359 7.57617Z" fill="#011323"/>
<path d="M69.8002 41.263C74.8834 41.263 78.7154 39.8291 81.4916 36.8019V24.1354H66.5548V30.0305H75.118V33.8942C73.8668 34.7705 71.9508 35.2883 70.113 35.2883C64.9907 35.2883 61.3542 31.6238 61.3542 26.8042C61.3542 21.9447 64.9907 18.2404 70.113 18.2404C73.4366 18.2404 76.9167 19.515 79.1064 21.6261V14.8945C77.034 13.1419 73.4757 12.2656 69.8002 12.2656C61.2369 12.2656 54.7852 18.5192 54.7852 26.8042C54.7852 35.0493 61.2369 41.263 69.8002 41.263Z" fill="#011323"/>
<path d="M96.0053 19.9133C93.5028 19.9133 91.3913 21.6659 90.6484 24.2151V20.3913H84.5094V40.7851H90.6484V31.9026C90.6875 28.0788 92.8772 25.6889 95.6534 25.6889C96.6701 25.6889 97.8822 25.888 99.0553 26.5253V20.6303C98.0777 20.1523 96.9829 19.9133 96.0053 19.9133Z" fill="#011323"/>
<path d="M109.869 41.263C116.047 41.263 120.778 36.6426 120.778 30.5882C120.778 24.4939 116.047 19.9133 109.869 19.9133C103.691 19.9133 98.9593 24.4939 98.9593 30.5882C98.9593 36.6426 103.691 41.263 109.869 41.263ZM109.869 35.607C107.21 35.607 105.177 33.456 105.177 30.5882C105.177 27.7203 107.21 25.5694 109.869 25.5694C112.567 25.5694 114.6 27.7203 114.6 30.5882C114.6 33.456 112.567 35.607 109.869 35.607Z" fill="#011323"/>
<path d="M146.616 20.3913L143.019 32.1814L138.796 20.3913H134.104L129.881 32.2213L126.244 20.3913H119.832L127.535 40.7851H131.992L136.45 29.4729L140.868 40.7851H145.326L153.029 20.3913H146.616Z" fill="#011323"/>
<path d="M176.605 40.7852H183.252L171.835 12.7437H165.109L153.691 40.7852H160.339L162.802 34.6511H174.142L176.605 40.7852ZM165.187 28.7561L168.472 20.5906L171.756 28.7561H165.187Z" fill="#011323"/>
<path d="M207.678 19.9134C204.941 19.9134 202.829 20.9889 201.187 23.0601C200.053 20.9889 198.098 19.9134 195.361 19.9134C193.562 19.9134 191.294 21.0287 190.082 23.1398V20.3914H183.943V40.7852H190.082V29.7518C190.082 27.1628 191.373 25.5695 193.367 25.5695C195.165 25.5695 196.299 27.0831 196.299 29.473V40.7852H202.399V29.7518C202.399 27.1628 203.69 25.5695 205.684 25.5695C207.482 25.5695 208.616 27.0831 208.616 29.473V40.7852H214.755V28.9552C214.755 23.1398 212.096 19.9134 207.678 19.9134Z" fill="#011323"/>
<path d="M226.432 19.9134C220.332 19.9134 216.187 24.6534 216.187 30.5883C216.187 37.0012 220.489 41.2632 226.98 41.2632C230.46 41.2632 233.118 40.3471 234.722 38.9529V33.735C232.727 35.2088 230.381 36.1249 228.074 36.1249C224.516 36.1249 222.287 34.452 221.701 31.8629H235.504C236.52 25.211 233.079 19.9134 226.432 19.9134ZM221.818 27.8399C222.483 25.6492 224.047 24.5737 225.924 24.5737C227.879 24.5737 229.365 25.8882 229.482 27.8399H221.818Z" fill="#011323"/>
<path d="M248.672 19.9134C246.17 19.9134 244.058 21.666 243.315 24.2152V20.3914H237.176V40.7852H243.315V31.9028C243.355 28.0789 245.544 25.689 248.32 25.689C249.337 25.689 250.549 25.8882 251.722 26.5255V20.6304C250.745 20.1524 249.65 19.9134 248.672 19.9134Z" fill="#011323"/>
<path d="M255.998 10.792C253.887 10.792 252.362 12.5048 252.362 14.4963C252.362 16.4083 253.887 18.121 255.998 18.121C258.11 18.121 259.674 16.4083 259.674 14.4963C259.674 12.5048 258.11 10.792 255.998 10.792ZM259.087 20.3914H252.949V40.7852H259.087V20.3914Z" fill="#011323"/>
<path d="M271.938 19.9134C265.447 19.9134 260.716 24.0958 260.716 30.5883C260.716 37.041 265.447 41.2632 271.938 41.2632C273.463 41.2632 276.122 40.7454 277.843 39.3114V33.0579C276.396 34.691 274.402 35.6071 272.251 35.6071C269.201 35.6071 266.894 33.4562 266.894 30.5883C266.894 27.7204 269.201 25.5695 272.251 25.5695C274.402 25.5695 276.278 26.406 277.725 27.9993V21.8254C275.966 20.3516 273.463 19.9134 271.938 19.9134Z" fill="#011323"/>
<path d="M287.067 19.9134C284.643 19.9134 282.101 20.5906 280.224 21.9448V27.1628C281.984 25.7687 283.939 25.0915 285.933 25.0915C288.866 25.0915 290.703 26.5255 290.703 28.7959V29.7518C289.53 28.9552 287.771 28.3577 285.894 28.3577C281.866 28.3577 278.973 30.8671 278.973 34.691C278.973 38.475 281.749 41.2632 285.542 41.2632C287.888 41.2632 289.765 40.0682 290.703 38.2758V40.7852H296.842V28.4772C296.842 23.4186 292.815 19.9134 287.067 19.9134ZM287.419 36.6427C285.855 36.6427 284.76 35.7266 284.76 34.5316C284.76 33.3367 285.855 32.4206 287.419 32.4206C288.514 32.4206 289.648 32.7392 290.703 33.2969V33.3765C290.547 35.2884 289.178 36.6427 287.419 36.6427Z" fill="#011323"/>
</svg>
